<svg width="71" height="70" xmlns="http://www.w3.org/2000/svg" xmlns:xlink="http://www.w3.org/1999/xlink" overflow="hidden"><defs><clipPath id="clip0"><rect x="1073" y="298" width="71" height="70"/></clipPath></defs><g clip-path="url(#clip0)" transform="translate(-1073 -298)"><path d="M29.198 7.30479C32.6963 7.54104 35.4731 10.3416 35.6796 13.8418 35.7678 15.4797 35.2683 17.0954 34.2708 18.3976L34.2708 20.5224C37.7611 17.4786 38.1231 12.1815 35.0792 8.69123 32.0354 5.20089 26.7383 4.83897 23.248 7.8828 19.7577 10.9267 19.3958 16.2237 22.4397 19.714 22.6904 20.0016 22.9605 20.2716 23.248 20.5224L23.248 18.3976C20.9329 15.36 21.5187 11.0207 24.5563 8.70559 25.883 7.69446 27.5305 7.19698 29.1951 7.30479Z" stroke="#34EAC6" stroke-width="0.729167" fill="#34EAC6" transform="matrix(1.01429 0 0 1 1073 298)"/><path d="M23.2509 24.901 23.2509 23.224C18.2673 20.1809 16.6941 13.674 19.7372 8.69028 22.7803 3.70667 29.2872 2.13351 34.2708 5.17657 39.2545 8.2196 40.8276 14.7265 37.7846 19.7102 36.9091 21.144 35.7046 22.3485 34.2708 23.224L34.2708 24.8114C34.37 24.7815 34.4757 24.7676 34.5771 24.7428 40.3975 21.5325 42.5134 14.2116 39.3031 8.3911 36.0927 2.57069 28.7719 0.454781 22.9514 3.66512 17.131 6.87546 15.0151 14.1964 18.2254 20.0168 19.3783 22.1069 21.1265 23.807 23.248 24.901Z" stroke="#34EAC6" stroke-width="0.729167" fill="#34EAC6" transform="matrix(1.01429 0 0 1 1073 298)"/><path d="M49.3456 31.3075C48.6492 31.3071 47.9615 31.4621 47.3324 31.761 46.8134 29.211 44.3255 27.5645 41.7755 28.0836 41.2579 28.1889 40.7617 28.3806 40.3076 28.6504 39.1665 26.3103 36.3444 25.3383 34.0043 26.4794 33.5665 26.6929 33.1645 26.9729 32.8125 27.3095L32.8125 14.2793C32.8125 12.0406 30.9978 10.2258 28.7591 10.2258 26.5204 10.2258 24.7056 12.0406 24.7056 14.2793L24.7056 38.8967C24.7056 38.9317 24.6998 38.9324 24.6918 38.8967L23.4099 33.1443C22.9473 30.9568 20.799 29.5586 18.6115 30.0212 16.4241 30.4838 15.0258 32.6321 15.4884 34.8195 15.4944 34.8477 15.5006 34.8758 15.5072 34.9038L19.4914 52.7997C19.6971 53.7265 20.2246 54.5503 20.9803 55.125L28.0335 60.5391 28.0335 65.1758 29.4919 65.1758 29.4919 60.1818C29.4917 59.9551 29.386 59.7414 29.206 59.6035L21.8655 53.9685C21.3842 53.6018 21.0483 53.0763 20.9176 52.4854L16.9327 34.5866C16.6224 33.1902 17.5029 31.8066 18.8993 31.4964 20.2956 31.1861 21.6792 32.0666 21.9895 33.4629L24.7195 45.7129C24.8116 46.1099 25.208 46.3571 25.6051 46.265 25.6248 46.2604 25.6444 46.2551 25.6637 46.2489 25.9697 46.1433 26.1729 45.8528 26.1669 45.5292L26.1669 14.2793C26.1669 12.846 27.3287 11.6842 28.762 11.6842 30.1952 11.6842 31.3571 12.846 31.3571 14.2793L31.3571 30.6855C31.3509 31.04 31.5945 31.3501 31.9404 31.4278 32.335 31.5084 32.7201 31.2538 32.8007 30.8592 32.8105 30.8109 32.8155 30.7618 32.8154 30.7125 32.8169 28.9156 34.2747 27.4601 36.0716 27.4616 37.5799 27.4628 38.8897 28.5006 39.2357 29.9688 39.268 30.128 39.3506 30.2727 39.4713 30.3815 39.757 30.6284 40.1837 30.6181 40.4571 30.3574 41.7505 29.1106 43.8097 29.1484 45.0565 30.4418 45.6399 31.047 45.9663 31.8545 45.9674 32.6951 45.9673 32.783 45.9624 32.8709 45.9528 32.9583 45.9204 33.212 46.0173 33.465 46.2109 33.6321 46.4901 33.8616 46.8953 33.8519 47.1632 33.6095 48.4924 32.4022 50.5487 32.501 51.756 33.8302 52.2994 34.4284 52.6005 35.2076 52.6006 36.0157L52.6006 47.9478C52.6006 52.8274 50.941 54.9558 49.4761 56.8327 48.3503 58.2757 47.2886 59.6385 47.2886 61.864L47.2886 65.1751 48.747 65.1751 48.747 61.8669C48.747 60.1402 49.576 59.0764 50.6268 57.7303 52.158 55.7696 54.0597 53.3291 54.0597 47.9478L54.0597 36.015C54.0552 33.4144 51.9463 31.3083 49.3456 31.3075Z" stroke="#34EAC6" stroke-width="0.729167" fill="#34EAC6" transform="matrix(1.01429 0 0 1 1073 298)"/></g></svg>