<svg width="20" height="19" xmlns="http://www.w3.org/2000/svg" xmlns:xlink="http://www.w3.org/1999/xlink" overflow="hidden"><defs><clipPath id="clip0"><rect x="1600" y="824" width="20" height="19"/></clipPath></defs><g clip-path="url(#clip0)" transform="translate(-1600 -824)"><path d="M9.49584 1.97917C5.3445 1.97917 1.97917 5.3445 1.97917 9.49584 1.97917 13.6472 5.3445 17.0125 9.49584 17.0125 13.6472 17.0125 17.0125 13.6472 17.0125 9.49584 17.0144 5.34636 13.6521 1.98103 9.50257 1.97917 9.50034 1.97917 9.49808 1.97917 9.49584 1.97917ZM9.49584 16.6167C5.5631 16.6167 2.375 13.4286 2.375 9.49584 2.375 5.5631 5.5631 2.375 9.49584 2.375 13.4286 2.375 16.6167 5.5631 16.6167 9.49584 16.6122 13.4267 13.4267 16.6122 9.49584 16.6167Z" stroke="#34EAC6" stroke-width="0.197917" fill="#34EAC6" transform="matrix(1.05263 0 0 1 1600 824)"/><path d="M8.94405 7.27819C8.65992 7.40151 8.40515 7.58363 8.19652 7.81256 7.98665 8.04565 7.82521 8.31812 7.72152 8.61413 7.60881 8.93441 7.55268 9.27188 7.55567 9.61143 7.55234 9.93138 7.60513 10.2494 7.71163 10.5511 7.80837 10.8258 7.95926 11.0784 8.15535 11.2937 8.34979 11.5038 8.58665 11.6701 8.85024 11.7816 9.13726 11.9018 9.44595 11.9616 9.75709 11.9573 10.1861 11.9649 10.6115 11.877 11.0024 11.7L11.0024 11.2737C10.6349 11.4701 10.223 11.5685 9.80638 11.5595 9.53824 11.5651 9.27222 11.5111 9.02757 11.4012 8.81171 11.3018 8.62046 11.1559 8.46747 10.9741 8.31406 10.7885 8.19848 10.5747 8.12725 10.3447 8.04933 10.0966 8.01054 9.83784 8.01226 9.57778 8.00939 9.29387 8.05272 9.01138 8.14051 8.74139 8.21934 8.49783 8.34553 8.27222 8.5118 8.07757 8.67617 7.88898 8.8805 7.73937 9.10991 7.63958 9.36621 7.53023 9.64274 7.47626 9.92136 7.48125 10.2966 7.47929 10.667 7.56594 11.0024 7.73419L11.0024 7.26849C10.6588 7.14073 10.2944 7.07831 9.9279 7.08443 9.58999 7.07928 9.25478 7.14531 8.94405 7.27819Z" stroke="#34EAC6" stroke-width="0.197917" fill="#34EAC6" transform="matrix(1.05263 0 0 1 1600 824)"/><path d="M9.5 4.94792C6.98596 4.94792 4.94792 6.98596 4.94792 9.5 4.94792 12.014 6.98596 14.0521 9.5 14.0521 12.014 14.0521 14.0521 12.014 14.0521 9.5 14.0493 6.98713 12.0129 4.95075 9.5 4.94792ZM9.5 13.6562C7.20456 13.6562 5.34375 11.7954 5.34375 9.5 5.34375 7.20456 7.20456 5.34375 9.5 5.34375 11.7954 5.34375 13.6562 7.20456 13.6562 9.5 13.6536 11.7943 11.7943 13.6536 9.5 13.6562Z" stroke="#34EAC6" stroke-width="0.197917" fill="#34EAC6" transform="matrix(1.05263 0 0 1 1600 824)"/></g></svg>