<svg width="61" height="60" xmlns="http://www.w3.org/2000/svg" xmlns:xlink="http://www.w3.org/1999/xlink" overflow="hidden"><defs><clipPath id="clip0"><rect x="1073" y="829" width="61" height="60"/></clipPath></defs><g clip-path="url(#clip0)" transform="translate(-1073 -829)"><path d="M47.2675 36.3913C45.6993 35.1521 43.963 34.1419 42.1106 33.3913L42.1106 33.3913C41.5181 33.1379 40.9161 32.8967 40.3044 32.6675L36.4012 31.105C35.9316 30.9138 35.6247 30.4571 35.625 29.95L35.625 28.1081C37.9832 26.3431 39.3726 23.5706 39.375 20.625L39.375 16.25 41.875 16.25C42.2202 16.25 42.5 15.9702 42.5 15.625 42.5 15.2798 42.2202 15 41.875 15L40.3013 15 40.3013 13.9481 40.3013 13.9087C40.0892 10.3506 38.0412 7.15913 34.895 5.48375L34.5387 5.2925C34.1894 4.01448 33.0293 3.12734 31.7044 3.125L28.3069 3.125C26.974 3.12717 25.8089 4.02444 25.4662 5.3125L25.1431 5.48563C21.9967 7.16081 19.9487 10.3524 19.7369 13.9106L19.7369 13.95 19.7369 15 18.125 15C17.7798 15 17.5 15.2798 17.5 15.625 17.5 15.9702 17.7798 16.25 18.125 16.25L20.625 16.25 20.625 20.625C20.6277 23.5683 22.0152 26.3387 24.3706 28.1038L24.3706 29.95C24.3719 30.4569 24.0659 30.9141 23.5969 31.1063L20.2312 32.475C17.5313 33.3437 14.9987 34.6653 12.7419 36.3831 11.4322 37.4051 10.6543 38.964 10.625 40.625L10.625 51.2706 10.9031 51.4581C13.8281 53.4044 22.0481 54.375 30.2012 54.375 38.3888 54.375 46.5094 53.3937 49.1219 51.4338L49.375 51.25 49.375 40.6119C49.3433 38.9596 48.5692 37.4094 47.2675 36.3913ZM20.9844 13.9875C21.1811 10.8646 22.9775 8.06506 25.7344 6.585L26.6094 10.165C26.6707 10.4181 26.8978 10.5959 27.1581 10.595L27.3125 10.595C27.3232 10.5931 27.3339 10.5906 27.3444 10.5875 27.6456 10.5056 27.8238 10.1952 27.7425 9.89375L26.6675 5.65813C26.8564 4.90594 27.5314 4.37765 28.3069 4.375L31.7 4.375C32.4759 4.37766 33.1511 4.90622 33.34 5.65875L32.2656 9.89375C32.2626 9.90425 32.26 9.91488 32.2581 9.92562 32.1928 10.2294 32.3861 10.5285 32.6898 10.5938 32.6917 10.5942 32.6937 10.5946 32.6956 10.595L32.8481 10.595C33.1085 10.5959 33.3356 10.4181 33.3969 10.165L34.3019 6.585C37.0588 8.06506 38.8551 10.8646 39.0519 13.9875L39.0519 15 20.9844 15ZM43.1281 48.8 43.1281 52.195C39.4086 52.8043 35.6471 53.1213 31.8781 53.1431L31.8781 48.75 43.1206 48.75ZM39.8575 33.8375 40.89 34.2512 42.9281 47.5 31.8781 47.5 31.8781 43.8844 36.9263 32.6637 37.5625 32.9181ZM21.875 20.625 21.875 16.25 38.125 16.25 38.125 20.625C38.125 25.1123 34.4873 28.75 30 28.75 25.5127 28.75 21.875 25.1123 21.875 20.625ZM25.625 29.95 25.625 28.9081C28.3615 30.3623 31.6416 30.3623 34.3781 28.9081L34.3781 29.95C34.3766 30.9006 34.9171 31.769 35.7706 32.1875L35.4444 32.9131C33.6886 33.4922 31.8486 33.775 30 33.75 28.1521 33.7745 26.3129 33.491 24.5581 32.9113L24.23 32.1831C25.0834 31.7663 25.6247 30.8997 25.625 29.95ZM16.8781 48.7988 16.8856 48.75 28.1281 48.75 28.1281 53.1306C24.358 53.0872 20.5968 52.7529 16.8781 52.1306ZM22.4406 32.9238 23.0781 32.6644 28.1287 43.8819 28.1287 47.5 17.0812 47.5 19.1556 34.2619 20.6787 33.6425ZM11.875 40.6381C11.9001 39.3526 12.5049 38.1472 13.5206 37.3587 14.7382 36.3894 16.0721 35.5761 17.4912 34.9375L17.8037 34.8125 15.6356 48.6531 15.6294 51.875C14.3249 51.625 13.0624 51.1917 11.8794 50.5881ZM29.375 53.1494 29.375 43.6156 25.2388 34.4281C28.3663 35.1889 31.6306 35.1889 34.7581 34.4281L30.625 43.6156 30.625 53.1525C30.2113 53.1544 29.795 53.1525 29.3781 53.1494ZM48.125 50.6081C46.9568 51.2507 45.6927 51.7009 44.3813 51.9413L44.3813 48.75 42.2437 34.8125C43.7639 35.4759 45.1911 36.3346 46.4894 37.3669 47.4968 38.1516 48.0976 39.3483 48.125 40.625Z" stroke="#34EAC6" stroke-width="0.625" fill="#34EAC6" transform="matrix(1.01667 0 0 1 1073 829)"/></g></svg>