<svg width="61" height="61" xmlns="http://www.w3.org/2000/svg" xmlns:xlink="http://www.w3.org/1999/xlink" overflow="hidden"><defs><clipPath id="clip0"><rect x="1006" y="522" width="61" height="61"/></clipPath></defs><g clip-path="url(#clip0)" transform="translate(-1006 -522)"><path d="M1016.7 538.525 1018.3 560.341 1018.44 562.264 1020.15 561.374 1033.43 554.485 1033.43 562.339 1035.29 561.376 1048.57 554.487 1048.57 565.22 1060.01 565.22 1060.01 574.116 1012.99 574.116 1012.99 560.295 1014.58 538.525ZM1013.4 537.254 1011.72 560.248 1011.72 575.39 1061.28 575.39 1061.28 563.952 1049.84 563.952 1049.84 552.396 1034.71 560.248 1034.71 552.396 1019.57 560.248 1017.88 537.254Z" stroke="#34EAC6" stroke-width="0.635417" fill="#34EAC6"/><path d="M1031.53 540.422C1030.43 540.425 1029.36 540.022 1028.53 539.289 1027.98 538.781 1027.6 538.129 1027.41 537.408 1026.15 537.399 1024.95 536.92 1024.03 536.065L1022.19 534.327C1021.51 533.756 1020.62 533.482 1019.73 533.565L1019.42 533.589C1018.37 533.628 1017.54 534.503 1017.56 535.559L1017.56 535.983 1016.28 535.983 1016.28 535.571C1016.24 533.842 1017.6 532.399 1019.32 532.325L1019.68 532.299C1020.91 532.195 1022.13 532.593 1023.06 533.401L1024.9 535.138C1025.7 535.88 1026.78 536.236 1027.86 536.115L1028.5 536.043 1028.57 536.684C1028.63 537.32 1028.92 537.912 1029.38 538.351 1030.66 539.46 1032.57 539.417 1033.79 538.25 1033.97 538.077 1034.13 537.882 1034.27 537.67L1034.52 537.27 1034.98 537.403C1036.41 537.817 1037.95 537.445 1039.04 536.424 1040.5 535.147 1040.64 532.932 1039.36 531.476 1039.36 531.476 1039.36 531.476 1039.36 531.475 1039.3 531.406 1039.24 531.339 1039.17 531.275 1037.57 529.881 1035.17 529.936 1033.64 531.402 1032.93 532.054 1031.84 532.06 1031.13 531.416 1029.83 530.22 1027.83 530.218 1026.53 531.411L1026.27 531.66C1025.56 532.318 1024.47 532.324 1023.76 531.673 1022.88 530.881 1021.75 530.442 1020.57 530.443L1020.12 530.453C1017.37 530.376 1015.07 532.535 1014.97 535.286L1014.97 535.981 1013.7 535.981 1013.7 535.269C1013.84 531.844 1016.67 529.146 1020.1 529.184L1020.56 529.174C1022.06 529.173 1023.51 529.733 1024.62 530.744 1024.84 530.945 1025.18 530.945 1025.39 530.744L1025.65 530.495C1027.44 528.846 1030.19 528.84 1031.98 530.482 1032.21 530.682 1032.55 530.679 1032.77 530.476 1034.79 528.56 1037.95 528.504 1040.04 530.346 1040.15 530.452 1040.23 530.543 1040.32 530.638 1042.06 532.613 1041.87 535.622 1039.9 537.366 1038.6 538.574 1036.81 539.083 1035.07 538.734 1034.95 538.889 1034.81 539.035 1034.67 539.172 1033.82 539.978 1032.7 540.427 1031.53 540.422Z" stroke="#34EAC6" stroke-width="0.635417" fill="#34EAC6"/><path d="M1021.66 567.686 1021.66 570.192 1017.47 570.192 1017.47 567.686ZM1016.2 566.416 1016.2 571.463 1022.93 571.463 1022.93 566.416Z" stroke="#34EAC6" stroke-width="0.635417" fill="#34EAC6"/><path d="M1032.88 567.686 1032.88 570.192 1028.69 570.192 1028.69 567.686ZM1027.42 566.416 1027.42 571.463 1034.15 571.463 1034.15 566.416Z" stroke="#34EAC6" stroke-width="0.635417" fill="#34EAC6"/><path d="M1044.09 567.686 1044.09 570.192 1039.9 570.192 1039.9 567.686ZM1038.63 566.416 1038.63 571.463 1045.36 571.463 1045.36 566.416Z" stroke="#34EAC6" stroke-width="0.635417" fill="#34EAC6"/></g></svg>